<svg xmlns="http://www.w3.org/2000/svg" version="1.1" xmlns:xlink="http://www.w3.org/1999/xlink" xmlns:svgjs="http://svgjs.com/svgjs" width="1440" height="560" preserveAspectRatio="none" viewBox="0 0 1440 560"><g mask="url(&quot;#SvgjsMask1729&quot;)" fill="none"><rect width="1440" height="560" x="0" y="0" fill="url(#SvgjsLinearGradient1730)"></rect><path d="M0 0L72.08 0L0 63.75z" fill="rgba(255, 255, 255, .1)"></path><path d="M0 63.75L72.08 0L378.3 0L0 325.88z" fill="rgba(255, 255, 255, .075)"></path><path d="M0 325.88L378.3 0L809.75 0L0 455.39z" fill="rgba(255, 255, 255, .05)"></path><path d="M0 455.39L809.75 0L863.02 0L0 456.64z" fill="rgba(255, 255, 255, .025)"></path><path d="M1440 560L1026.07 560L1440 389.52z" fill="rgba(0, 0, 0, .1)"></path><path d="M1440 389.52L1026.07 560L559.1999999999999 560L1440 174.7z" fill="rgba(0, 0, 0, .075)"></path><path d="M1440 174.70000000000005L559.2 560L432.96000000000004 560L1440 94.18000000000005z" fill="rgba(0, 0, 0, .05)"></path><path d="M1440 94.18000000000006L432.96000000000004 560L138.41000000000003 560L1440 67.67000000000006z" fill="rgba(0, 0, 0, .025)"></path></g><defs><mask id="SvgjsMask1729"><rect width="1440" height="560" fill="#ffffff"></rect></mask><linearGradient x1="100%" y1="50%" x2="0%" y2="50%" gradientUnits="userSpaceOnUse" id="SvgjsLinearGradient1730"><stop stop-color="rgba(14, 42, 71, 0.61)" offset="0"></stop><stop stop-color="rgba(0, 170, 19, 0.46)" offset="1"></stop></linearGradient></defs></svg>