<svg xmlns="http://www.w3.org/2000/svg" version="1.1" xmlns:xlink="http://www.w3.org/1999/xlink" xmlns:svgjs="http://svgjs.com/svgjs" width="1440" height="560" preserveAspectRatio="none" viewBox="0 0 1440 560"><g mask="url(&quot;#SvgjsMask1045&quot;)" fill="none"><rect width="1440" height="560" x="0" y="0" fill="rgba(0, 121, 0, 0.5)"></rect><path d="M0,289.857C60.004,288.329,119.145,293.573,175.643,273.306C243.314,249.031,331.252,230.029,355.473,162.339C380.069,93.601,309.328,28.455,288.268,-41.447C271.08,-98.496,274.518,-160.023,243.101,-210.649C208.188,-266.907,160.709,-315.163,100.847,-343.454C34.825,-374.656,-45.804,-410.909,-110.989,-377.994C-177.375,-344.473,-178.014,-250.292,-213.302,-184.828C-239.636,-135.975,-272.229,-93.816,-292.104,-41.998C-317.219,23.482,-367.182,90.972,-344.548,157.35C-321.985,223.522,-246.743,257.308,-181.489,282.403C-123.809,304.586,-61.779,291.431,0,289.857" fill="rgba(0, 81, 0, 0.5)"></path><path d="M1440 1132.876C1546.304 1136.238 1639.4470000000001 1066.297 1723.475 1001.096 1801.949 940.204 1845.187 851.73 1904.757 772.248 1982.931 667.943 2140.884 590.78 2128.227 461.048 2115.726 332.922 1935.0729999999999 301.339 1849.435 205.22199999999998 1765.522 111.041 1745.876-40.22799999999995 1632.443-95.40200000000004 1515.477-152.29399999999998 1365.9569999999999-145.635 1250.252-86.221 1139.599-29.400999999999954 1121.719 119.74099999999999 1036.68 210.52100000000002 946.501 306.78700000000003 774.768 332.209 739.274 459.251 704.082 585.209 783.002 720.984 865.771 822.242 939.499 912.4390000000001 1065.355 928.0930000000001 1167.819 983.5219999999999 1260.724 1033.78 1334.425 1129.537 1440 1132.876" fill="rgba(0, 161, 0, 0.5)"></path></g><defs><mask id="SvgjsMask1045"><rect width="1440" height="560" fill="#ffffff"></rect></mask></defs></svg>