<svg xmlns="http://www.w3.org/2000/svg" version="1.1" xmlns:xlink="http://www.w3.org/1999/xlink" xmlns:svgjs="http://svgjs.com/svgjs" width="1440" height="560" preserveAspectRatio="none" viewBox="0 0 1440 560"><g mask="url(&quot;#SvgjsMask1452&quot;)" fill="none"><rect width="1440" height="560" x="0" y="0" fill="url(#SvgjsLinearGradient1453)"></rect><path d="M61.16715675901496 163.9126039025138L-61.24042977598836 299.59972797399485 94.41049893972028 335.5345763336045z" fill="rgba(0, 170, 19, 0.5)" class="triangle-float2"></path><path d="M843.74 198.67 a111.34 111.34 0 1 0 222.68 0 a111.34 111.34 0 1 0 -222.68 0z" fill="rgba(0, 170, 19, 0.5)" class="triangle-float2"></path><path d="M842.39 102.14 a144.79 144.79 0 1 0 289.58 0 a144.79 144.79 0 1 0 -289.58 0z" fill="rgba(0, 170, 19, 0.5)" class="triangle-float2"></path><path d="M285.822,139.162C307.802,139.844,326.616,125.364,338.041,106.574C350,86.907,355.438,62.794,344.607,42.485C333.205,21.106,309.982,6.817,285.822,8.662C263.941,10.333,250.497,30.742,240.77,50.414C232.359,67.425,230.337,86.578,238.927,103.5C248.454,122.268,264.784,138.509,285.822,139.162" fill="rgba(0, 170, 19, 0.5)" class="triangle-float3"></path><path d="M1210.56 326.97 a121.46 121.46 0 1 0 242.92 0 a121.46 121.46 0 1 0 -242.92 0z" fill="rgba(0, 170, 19, 0.5)" class="triangle-float2"></path><path d="M1304.7741580284433 564.5137140102253L1307.6392777329959 482.4674204647811 1183.1372775625534 519.1928876806741z" fill="rgba(0, 170, 19, 0.5)" class="triangle-float2"></path><path d="M1235.86 23.08 a102.93 102.93 0 1 0 205.86 0 a102.93 102.93 0 1 0 -205.86 0z" fill="rgba(0, 170, 19, 0.5)" class="triangle-float2"></path><path d="M600.95 97.89 a156.18 156.18 0 1 0 312.36 0 a156.18 156.18 0 1 0 -312.36 0z" fill="rgba(0, 170, 19, 0.5)" class="triangle-float3"></path><path d="M153.22701594402986 637.6444921959994L283.00960125691716 602.869353269788 248.23446233070575 473.0867679569007 118.45187701781845 507.8619068831121z" fill="rgba(0, 170, 19, 0.5)" class="triangle-float1"></path><path d="M647.365,650.772C703.906,647.552,745.537,602.395,771.33,551.977C794.596,506.499,793.994,454.638,771.057,408.993C745.164,357.465,704.938,308.59,647.365,305.284C585.036,301.705,527.509,339.117,496.351,393.218C465.251,447.219,464.749,513.885,496.269,567.642C527.433,620.791,585.853,654.275,647.365,650.772" fill="rgba(0, 170, 19, 0.5)" class="triangle-float2"></path><path d="M244.876,616.56C275.406,616.103,310.856,615.928,325.893,589.354C340.812,562.988,321.921,533.074,307.053,506.68C291.762,479.535,275.92,448.166,244.876,445.53C210.416,442.604,178.681,464.427,161.258,494.302C143.7,524.409,139.872,563.074,159.548,591.842C177.465,618.039,213.142,617.035,244.876,616.56" fill="rgba(0, 170, 19, 0.5)" class="triangle-float3"></path><path d="M943.0637508158527 147.8466438926561L874.4021770883755 295.0918639243082 1090.308970847505 216.50821762013328z" fill="rgba(0, 170, 19, 0.5)" class="triangle-float1"></path><path d="M1161.1011110021855 170.07214240278196L1235.9252849904458 294.6004799552687 1360.4536225429324 219.77630596700845 1285.6294485546723 95.24796841452171z" fill="rgba(0, 170, 19, 0.5)" class="triangle-float3"></path><path d="M954.99 352.91 a117.99 117.99 0 1 0 235.98 0 a117.99 117.99 0 1 0 -235.98 0z" fill="rgba(0, 170, 19, 0.5)" class="triangle-float3"></path><path d="M561.4197897320032 420.5661706356551L509.00794106153603 564.5665413696365 653.0083117955174 616.9783900401037 705.4201604659846 472.9780193061223z" fill="rgba(0, 170, 19, 0.5)" class="triangle-float2"></path><path d="M1359.3075865788262 434.624622354455L1510.4013896230863 370.4891080768325 1446.2658753454637 219.39530503257245 1295.1720723012036 283.53081931019494z" fill="rgba(0, 170, 19, 0.5)" class="triangle-float1"></path><path d="M319.3896708102122 126.94681642632838L230.8520048226255 262.9988282792741 372.4030230257388 272.89703970957567z" fill="rgba(0, 170, 19, 0.5)" class="triangle-float1"></path></g><defs><mask id="SvgjsMask1452"><rect width="1440" height="560" fill="#ffffff"></rect></mask><linearGradient x1="84.72%" y1="139.29%" x2="15.28%" y2="-39.29%" gradientUnits="userSpaceOnUse" id="SvgjsLinearGradient1453"><stop stop-color="rgba(0, 121, 0, 1)" offset="1"></stop><stop stop-color="rgba(0, 170, 19, 1)" offset="1"></stop></linearGradient><style>
            @keyframes float1 {
                0%{transform: translate(0, 0)}
                50%{transform: translate(-10px, 0)}
                100%{transform: translate(0, 0)}
            }

            .triangle-float1 {
                animation: float1 5s infinite;
            }

            @keyframes float2 {
                0%{transform: translate(0, 0)}
                50%{transform: translate(-5px, -5px)}
                100%{transform: translate(0, 0)}
            }

            .triangle-float2 {
                animation: float2 4s infinite;
            }

            @keyframes float3 {
                0%{transform: translate(0, 0)}
                50%{transform: translate(0, -10px)}
                100%{transform: translate(0, 0)}
            }

            .triangle-float3 {
                animation: float3 6s infinite;
            }
        </style></defs></svg>