<svg xmlns="http://www.w3.org/2000/svg" version="1.1" xmlns:xlink="http://www.w3.org/1999/xlink" xmlns:svgjs="http://svgjs.com/svgjs" width="1440" height="560" preserveAspectRatio="none" viewBox="0 0 1440 560"><g mask="url(&quot;#SvgjsMask1282&quot;)" fill="none"><path d="M9.48 -2.59L74.43 34.91L74.43 109.91L9.48 147.41L-55.47 109.91L-55.47 34.91zM74.43 334.91L139.39 372.41L139.39 447.41L74.43 484.91L9.48 447.41L9.48 372.41zM9.48 447.41L74.43 484.91L74.43 559.91L9.48 597.41L-55.47 559.91L-55.47 484.91zM74.43 559.91L139.39 597.41L139.39 672.41L74.43 709.91L9.48 672.41L9.48 597.41zM204.34 334.91L269.3 372.41L269.3 447.41L204.34 484.91L139.39 447.41L139.39 372.41zM139.39 447.41L204.34 484.91L204.34 559.91L139.39 597.41L74.43 559.91L74.43 484.91zM269.3 447.41L334.25 484.91L334.25 559.91L269.3 597.41L204.34 559.91L204.34 484.91zM399.2 222.41L464.16 259.91L464.16 334.91L399.2 372.41L334.25 334.91L334.25 259.91zM464.16 334.91L529.11 372.41L529.11 447.41L464.16 484.91L399.2 447.41L399.2 372.41zM529.11 -2.59L594.06 34.91L594.06 109.91L529.11 147.41L464.16 109.91L464.16 34.91zM594.06 109.91L659.02 147.41L659.02 222.41L594.06 259.91L529.11 222.41L529.11 147.41zM529.11 447.41L594.06 484.91L594.06 559.91L529.11 597.41L464.16 559.91L464.16 484.91zM659.02 -2.59L723.97 34.91L723.97 109.91L659.02 147.41L594.06 109.91L594.06 34.91zM723.97 334.91L788.93 372.41L788.93 447.41L723.97 484.91L659.02 447.41L659.02 372.41zM659.02 447.41L723.97 484.91L723.97 559.91L659.02 597.41L594.06 559.91L594.06 484.91zM723.97 559.91L788.93 597.41L788.93 672.41L723.97 709.91L659.02 672.41L659.02 597.41zM788.92 -2.59L853.88 34.91L853.88 109.91L788.92 147.41L723.97 109.91L723.97 34.91zM853.88 109.91L918.83 147.41L918.83 222.41L853.88 259.91L788.92 222.41L788.92 147.41zM918.83 222.41L983.79 259.91L983.79 334.91L918.83 372.41L853.88 334.91L853.88 259.91zM918.83 447.41L983.79 484.91L983.79 559.91L918.83 597.41L853.88 559.91L853.88 484.91zM983.79 559.91L1048.74 597.41L1048.74 672.41L983.79 709.91L918.83 672.41L918.83 597.41zM1048.74 -2.59L1113.69 34.91L1113.69 109.91L1048.74 147.41L983.79 109.91L983.79 34.91zM1048.74 447.41L1113.69 484.91L1113.69 559.91L1048.74 597.41L983.79 559.91L983.79 484.91zM1243.6 559.91L1308.55 597.41L1308.55 672.41L1243.6 709.91L1178.65 672.41L1178.65 597.41zM1308.56 -2.59L1373.51 34.91L1373.51 109.91L1308.56 147.41L1243.6 109.91L1243.6 34.91zM1373.51 109.91L1438.46 147.41L1438.46 222.41L1373.51 259.91L1308.56 222.41L1308.56 147.41zM1308.56 222.41L1373.51 259.91L1373.51 334.91L1308.56 372.41L1243.6 334.91L1243.6 259.91zM1373.51 334.91L1438.46 372.41L1438.46 447.41L1373.51 484.91L1308.56 447.41L1308.56 372.41zM1373.51 559.91L1438.46 597.41L1438.46 672.41L1373.51 709.91L1308.56 672.41L1308.56 597.41zM1503.42 334.91L1568.37 372.41L1568.37 447.41L1503.42 484.91L1438.46 447.41L1438.46 372.41zM1438.46 447.41L1503.42 484.91L1503.42 559.91L1438.46 597.41L1373.51 559.91L1373.51 484.91z" stroke="rgba(2, 95, 29, 0.5)" stroke-width="2"></path><path d="M1.98 -2.59 a7.5 7.5 0 1 0 15 0 a7.5 7.5 0 1 0 -15 0zM66.93 34.91 a7.5 7.5 0 1 0 15 0 a7.5 7.5 0 1 0 -15 0zM66.93 109.91 a7.5 7.5 0 1 0 15 0 a7.5 7.5 0 1 0 -15 0zM1.98 147.41 a7.5 7.5 0 1 0 15 0 a7.5 7.5 0 1 0 -15 0zM-62.97 109.91 a7.5 7.5 0 1 0 15 0 a7.5 7.5 0 1 0 -15 0zM-62.97 34.91 a7.5 7.5 0 1 0 15 0 a7.5 7.5 0 1 0 -15 0zM66.93 334.91 a7.5 7.5 0 1 0 15 0 a7.5 7.5 0 1 0 -15 0zM131.89 372.41 a7.5 7.5 0 1 0 15 0 a7.5 7.5 0 1 0 -15 0zM131.89 447.41 a7.5 7.5 0 1 0 15 0 a7.5 7.5 0 1 0 -15 0zM66.93 484.91 a7.5 7.5 0 1 0 15 0 a7.5 7.5 0 1 0 -15 0zM1.98 447.41 a7.5 7.5 0 1 0 15 0 a7.5 7.5 0 1 0 -15 0zM1.98 372.41 a7.5 7.5 0 1 0 15 0 a7.5 7.5 0 1 0 -15 0zM66.93 559.91 a7.5 7.5 0 1 0 15 0 a7.5 7.5 0 1 0 -15 0zM1.98 597.41 a7.5 7.5 0 1 0 15 0 a7.5 7.5 0 1 0 -15 0zM-62.97 559.91 a7.5 7.5 0 1 0 15 0 a7.5 7.5 0 1 0 -15 0zM-62.97 484.91 a7.5 7.5 0 1 0 15 0 a7.5 7.5 0 1 0 -15 0zM131.89 597.41 a7.5 7.5 0 1 0 15 0 a7.5 7.5 0 1 0 -15 0zM131.89 672.41 a7.5 7.5 0 1 0 15 0 a7.5 7.5 0 1 0 -15 0zM66.93 709.91 a7.5 7.5 0 1 0 15 0 a7.5 7.5 0 1 0 -15 0zM1.98 672.41 a7.5 7.5 0 1 0 15 0 a7.5 7.5 0 1 0 -15 0zM196.84 334.91 a7.5 7.5 0 1 0 15 0 a7.5 7.5 0 1 0 -15 0zM261.8 372.41 a7.5 7.5 0 1 0 15 0 a7.5 7.5 0 1 0 -15 0zM261.8 447.41 a7.5 7.5 0 1 0 15 0 a7.5 7.5 0 1 0 -15 0zM196.84 484.91 a7.5 7.5 0 1 0 15 0 a7.5 7.5 0 1 0 -15 0zM196.84 559.91 a7.5 7.5 0 1 0 15 0 a7.5 7.5 0 1 0 -15 0zM326.75 484.91 a7.5 7.5 0 1 0 15 0 a7.5 7.5 0 1 0 -15 0zM326.75 559.91 a7.5 7.5 0 1 0 15 0 a7.5 7.5 0 1 0 -15 0zM261.8 597.41 a7.5 7.5 0 1 0 15 0 a7.5 7.5 0 1 0 -15 0zM391.7 222.41 a7.5 7.5 0 1 0 15 0 a7.5 7.5 0 1 0 -15 0zM456.66 259.91 a7.5 7.5 0 1 0 15 0 a7.5 7.5 0 1 0 -15 0zM456.66 334.91 a7.5 7.5 0 1 0 15 0 a7.5 7.5 0 1 0 -15 0zM391.7 372.41 a7.5 7.5 0 1 0 15 0 a7.5 7.5 0 1 0 -15 0zM326.75 334.91 a7.5 7.5 0 1 0 15 0 a7.5 7.5 0 1 0 -15 0zM326.75 259.91 a7.5 7.5 0 1 0 15 0 a7.5 7.5 0 1 0 -15 0zM521.61 372.41 a7.5 7.5 0 1 0 15 0 a7.5 7.5 0 1 0 -15 0zM521.61 447.41 a7.5 7.5 0 1 0 15 0 a7.5 7.5 0 1 0 -15 0zM456.66 484.91 a7.5 7.5 0 1 0 15 0 a7.5 7.5 0 1 0 -15 0zM391.7 447.41 a7.5 7.5 0 1 0 15 0 a7.5 7.5 0 1 0 -15 0zM521.61 -2.59 a7.5 7.5 0 1 0 15 0 a7.5 7.5 0 1 0 -15 0zM586.56 34.91 a7.5 7.5 0 1 0 15 0 a7.5 7.5 0 1 0 -15 0zM586.56 109.91 a7.5 7.5 0 1 0 15 0 a7.5 7.5 0 1 0 -15 0zM521.61 147.41 a7.5 7.5 0 1 0 15 0 a7.5 7.5 0 1 0 -15 0zM456.66 109.91 a7.5 7.5 0 1 0 15 0 a7.5 7.5 0 1 0 -15 0zM456.66 34.91 a7.5 7.5 0 1 0 15 0 a7.5 7.5 0 1 0 -15 0zM651.52 147.41 a7.5 7.5 0 1 0 15 0 a7.5 7.5 0 1 0 -15 0zM651.52 222.41 a7.5 7.5 0 1 0 15 0 a7.5 7.5 0 1 0 -15 0zM586.56 259.91 a7.5 7.5 0 1 0 15 0 a7.5 7.5 0 1 0 -15 0zM521.61 222.41 a7.5 7.5 0 1 0 15 0 a7.5 7.5 0 1 0 -15 0zM586.56 484.91 a7.5 7.5 0 1 0 15 0 a7.5 7.5 0 1 0 -15 0zM586.56 559.91 a7.5 7.5 0 1 0 15 0 a7.5 7.5 0 1 0 -15 0zM521.61 597.41 a7.5 7.5 0 1 0 15 0 a7.5 7.5 0 1 0 -15 0zM456.66 559.91 a7.5 7.5 0 1 0 15 0 a7.5 7.5 0 1 0 -15 0zM651.52 -2.59 a7.5 7.5 0 1 0 15 0 a7.5 7.5 0 1 0 -15 0zM716.47 34.91 a7.5 7.5 0 1 0 15 0 a7.5 7.5 0 1 0 -15 0zM716.47 109.91 a7.5 7.5 0 1 0 15 0 a7.5 7.5 0 1 0 -15 0zM716.47 334.91 a7.5 7.5 0 1 0 15 0 a7.5 7.5 0 1 0 -15 0zM781.43 372.41 a7.5 7.5 0 1 0 15 0 a7.5 7.5 0 1 0 -15 0zM781.43 447.41 a7.5 7.5 0 1 0 15 0 a7.5 7.5 0 1 0 -15 0zM716.47 484.91 a7.5 7.5 0 1 0 15 0 a7.5 7.5 0 1 0 -15 0zM651.52 447.41 a7.5 7.5 0 1 0 15 0 a7.5 7.5 0 1 0 -15 0zM651.52 372.41 a7.5 7.5 0 1 0 15 0 a7.5 7.5 0 1 0 -15 0zM716.47 559.91 a7.5 7.5 0 1 0 15 0 a7.5 7.5 0 1 0 -15 0zM651.52 597.41 a7.5 7.5 0 1 0 15 0 a7.5 7.5 0 1 0 -15 0zM781.43 597.41 a7.5 7.5 0 1 0 15 0 a7.5 7.5 0 1 0 -15 0zM781.43 672.41 a7.5 7.5 0 1 0 15 0 a7.5 7.5 0 1 0 -15 0zM716.47 709.91 a7.5 7.5 0 1 0 15 0 a7.5 7.5 0 1 0 -15 0zM651.52 672.41 a7.5 7.5 0 1 0 15 0 a7.5 7.5 0 1 0 -15 0zM781.42 -2.59 a7.5 7.5 0 1 0 15 0 a7.5 7.5 0 1 0 -15 0zM846.38 34.91 a7.5 7.5 0 1 0 15 0 a7.5 7.5 0 1 0 -15 0zM846.38 109.91 a7.5 7.5 0 1 0 15 0 a7.5 7.5 0 1 0 -15 0zM781.42 147.41 a7.5 7.5 0 1 0 15 0 a7.5 7.5 0 1 0 -15 0zM911.33 147.41 a7.5 7.5 0 1 0 15 0 a7.5 7.5 0 1 0 -15 0zM911.33 222.41 a7.5 7.5 0 1 0 15 0 a7.5 7.5 0 1 0 -15 0zM846.38 259.91 a7.5 7.5 0 1 0 15 0 a7.5 7.5 0 1 0 -15 0zM781.42 222.41 a7.5 7.5 0 1 0 15 0 a7.5 7.5 0 1 0 -15 0zM976.29 259.91 a7.5 7.5 0 1 0 15 0 a7.5 7.5 0 1 0 -15 0zM976.29 334.91 a7.5 7.5 0 1 0 15 0 a7.5 7.5 0 1 0 -15 0zM911.33 372.41 a7.5 7.5 0 1 0 15 0 a7.5 7.5 0 1 0 -15 0zM846.38 334.91 a7.5 7.5 0 1 0 15 0 a7.5 7.5 0 1 0 -15 0zM911.33 447.41 a7.5 7.5 0 1 0 15 0 a7.5 7.5 0 1 0 -15 0zM976.29 484.91 a7.5 7.5 0 1 0 15 0 a7.5 7.5 0 1 0 -15 0zM976.29 559.91 a7.5 7.5 0 1 0 15 0 a7.5 7.5 0 1 0 -15 0zM911.33 597.41 a7.5 7.5 0 1 0 15 0 a7.5 7.5 0 1 0 -15 0zM846.38 559.91 a7.5 7.5 0 1 0 15 0 a7.5 7.5 0 1 0 -15 0zM846.38 484.91 a7.5 7.5 0 1 0 15 0 a7.5 7.5 0 1 0 -15 0zM1041.24 597.41 a7.5 7.5 0 1 0 15 0 a7.5 7.5 0 1 0 -15 0zM1041.24 672.41 a7.5 7.5 0 1 0 15 0 a7.5 7.5 0 1 0 -15 0zM976.29 709.91 a7.5 7.5 0 1 0 15 0 a7.5 7.5 0 1 0 -15 0zM911.33 672.41 a7.5 7.5 0 1 0 15 0 a7.5 7.5 0 1 0 -15 0zM1041.24 -2.59 a7.5 7.5 0 1 0 15 0 a7.5 7.5 0 1 0 -15 0zM1106.19 34.91 a7.5 7.5 0 1 0 15 0 a7.5 7.5 0 1 0 -15 0zM1106.19 109.91 a7.5 7.5 0 1 0 15 0 a7.5 7.5 0 1 0 -15 0zM1041.24 147.41 a7.5 7.5 0 1 0 15 0 a7.5 7.5 0 1 0 -15 0zM976.29 109.91 a7.5 7.5 0 1 0 15 0 a7.5 7.5 0 1 0 -15 0zM976.29 34.91 a7.5 7.5 0 1 0 15 0 a7.5 7.5 0 1 0 -15 0zM1041.24 447.41 a7.5 7.5 0 1 0 15 0 a7.5 7.5 0 1 0 -15 0zM1106.19 484.91 a7.5 7.5 0 1 0 15 0 a7.5 7.5 0 1 0 -15 0zM1106.19 559.91 a7.5 7.5 0 1 0 15 0 a7.5 7.5 0 1 0 -15 0zM1236.1 559.91 a7.5 7.5 0 1 0 15 0 a7.5 7.5 0 1 0 -15 0zM1301.05 597.41 a7.5 7.5 0 1 0 15 0 a7.5 7.5 0 1 0 -15 0zM1301.05 672.41 a7.5 7.5 0 1 0 15 0 a7.5 7.5 0 1 0 -15 0zM1236.1 709.91 a7.5 7.5 0 1 0 15 0 a7.5 7.5 0 1 0 -15 0zM1171.15 672.41 a7.5 7.5 0 1 0 15 0 a7.5 7.5 0 1 0 -15 0zM1171.15 597.41 a7.5 7.5 0 1 0 15 0 a7.5 7.5 0 1 0 -15 0zM1301.06 -2.59 a7.5 7.5 0 1 0 15 0 a7.5 7.5 0 1 0 -15 0zM1366.01 34.91 a7.5 7.5 0 1 0 15 0 a7.5 7.5 0 1 0 -15 0zM1366.01 109.91 a7.5 7.5 0 1 0 15 0 a7.5 7.5 0 1 0 -15 0zM1301.06 147.41 a7.5 7.5 0 1 0 15 0 a7.5 7.5 0 1 0 -15 0zM1236.1 109.91 a7.5 7.5 0 1 0 15 0 a7.5 7.5 0 1 0 -15 0zM1236.1 34.91 a7.5 7.5 0 1 0 15 0 a7.5 7.5 0 1 0 -15 0zM1430.96 147.41 a7.5 7.5 0 1 0 15 0 a7.5 7.5 0 1 0 -15 0zM1430.96 222.41 a7.5 7.5 0 1 0 15 0 a7.5 7.5 0 1 0 -15 0zM1366.01 259.91 a7.5 7.5 0 1 0 15 0 a7.5 7.5 0 1 0 -15 0zM1301.06 222.41 a7.5 7.5 0 1 0 15 0 a7.5 7.5 0 1 0 -15 0zM1366.01 334.91 a7.5 7.5 0 1 0 15 0 a7.5 7.5 0 1 0 -15 0zM1301.06 372.41 a7.5 7.5 0 1 0 15 0 a7.5 7.5 0 1 0 -15 0zM1236.1 334.91 a7.5 7.5 0 1 0 15 0 a7.5 7.5 0 1 0 -15 0zM1236.1 259.91 a7.5 7.5 0 1 0 15 0 a7.5 7.5 0 1 0 -15 0zM1430.96 372.41 a7.5 7.5 0 1 0 15 0 a7.5 7.5 0 1 0 -15 0zM1430.96 447.41 a7.5 7.5 0 1 0 15 0 a7.5 7.5 0 1 0 -15 0zM1366.01 484.91 a7.5 7.5 0 1 0 15 0 a7.5 7.5 0 1 0 -15 0zM1301.06 447.41 a7.5 7.5 0 1 0 15 0 a7.5 7.5 0 1 0 -15 0zM1366.01 559.91 a7.5 7.5 0 1 0 15 0 a7.5 7.5 0 1 0 -15 0zM1430.96 597.41 a7.5 7.5 0 1 0 15 0 a7.5 7.5 0 1 0 -15 0zM1430.96 672.41 a7.5 7.5 0 1 0 15 0 a7.5 7.5 0 1 0 -15 0zM1366.01 709.91 a7.5 7.5 0 1 0 15 0 a7.5 7.5 0 1 0 -15 0zM1301.06 672.41 a7.5 7.5 0 1 0 15 0 a7.5 7.5 0 1 0 -15 0zM1301.06 597.41 a7.5 7.5 0 1 0 15 0 a7.5 7.5 0 1 0 -15 0zM1495.92 334.91 a7.5 7.5 0 1 0 15 0 a7.5 7.5 0 1 0 -15 0zM1560.87 372.41 a7.5 7.5 0 1 0 15 0 a7.5 7.5 0 1 0 -15 0zM1560.87 447.41 a7.5 7.5 0 1 0 15 0 a7.5 7.5 0 1 0 -15 0zM1495.92 484.91 a7.5 7.5 0 1 0 15 0 a7.5 7.5 0 1 0 -15 0zM1495.92 559.91 a7.5 7.5 0 1 0 15 0 a7.5 7.5 0 1 0 -15 0z" fill="rgba(2, 95, 29, 0.5)"></path><path d="M9.97 -1.11L42.01 17.39L42.01 54.39L9.97 72.89L-22.07 54.39L-22.07 17.39zM9.97 109.89L42.01 128.39L42.01 165.39L9.97 183.89L-22.07 165.39L-22.07 128.39zM9.97 220.89L42.01 239.39L42.01 276.39L9.97 294.89L-22.07 276.39L-22.07 239.39zM42.01 276.39L74.06 294.89L74.06 331.89L42.01 350.39L9.97 331.89L9.97 294.89zM9.97 442.89L42.01 461.39L42.01 498.39L9.97 516.89L-22.07 498.39L-22.07 461.39zM42.01 498.39L74.06 516.89L74.06 553.89L42.01 572.39L9.97 553.89L9.97 516.89zM9.97 553.89L42.01 572.39L42.01 609.39L9.97 627.89L-22.07 609.39L-22.07 572.39zM74.06 -1.11L106.1 17.39L106.1 54.39L74.06 72.89L42.01 54.39L42.01 17.39zM74.06 109.89L106.1 128.39L106.1 165.39L74.06 183.89L42.01 165.39L42.01 128.39zM106.1 165.39L138.15 183.89L138.15 220.89L106.1 239.39L74.06 220.89L74.06 183.89zM74.06 220.89L106.1 239.39L106.1 276.39L74.06 294.89L42.01 276.39L42.01 239.39zM106.1 387.39L138.15 405.89L138.15 442.89L106.1 461.39L74.06 442.89L74.06 405.89zM138.15 -1.11L170.19 17.39L170.19 54.39L138.15 72.89L106.1 54.39L106.1 17.39zM138.15 331.89L170.19 350.39L170.19 387.39L138.15 405.89L106.1 387.39L106.1 350.39zM170.19 387.39L202.23 405.89L202.23 442.89L170.19 461.39L138.15 442.89L138.15 405.89zM138.15 442.89L170.19 461.39L170.19 498.39L138.15 516.89L106.1 498.39L106.1 461.39zM170.19 498.39L202.23 516.89L202.23 553.89L170.19 572.39L138.15 553.89L138.15 516.89zM138.15 553.89L170.19 572.39L170.19 609.39L138.15 627.89L106.1 609.39L106.1 572.39zM234.28 165.39L266.32 183.89L266.32 220.89L234.28 239.39L202.23 220.89L202.23 183.89zM234.28 387.39L266.32 405.89L266.32 442.89L234.28 461.39L202.23 442.89L202.23 405.89zM202.23 442.89L234.28 461.39L234.28 498.39L202.23 516.89L170.19 498.39L170.19 461.39zM202.23 553.89L234.28 572.39L234.28 609.39L202.23 627.89L170.19 609.39L170.19 572.39zM298.36 165.39L330.41 183.89L330.41 220.89L298.36 239.39L266.32 220.89L266.32 183.89zM266.32 331.89L298.36 350.39L298.36 387.39L266.32 405.89L234.28 387.39L234.28 350.39zM298.36 387.39L330.41 405.89L330.41 442.89L298.36 461.39L266.32 442.89L266.32 405.89zM330.41 -1.11L362.45 17.39L362.45 54.39L330.41 72.89L298.36 54.39L298.36 17.39zM330.41 109.89L362.45 128.39L362.45 165.39L330.41 183.89L298.36 165.39L298.36 128.39zM426.54 276.39L458.58 294.89L458.58 331.89L426.54 350.39L394.5 331.89L394.5 294.89zM426.54 387.39L458.58 405.89L458.58 442.89L426.54 461.39L394.5 442.89L394.5 405.89zM394.5 442.89L426.54 461.39L426.54 498.39L394.5 516.89L362.45 498.39L362.45 461.39zM426.54 498.39L458.58 516.89L458.58 553.89L426.54 572.39L394.5 553.89L394.5 516.89zM458.58 220.89L490.63 239.39L490.63 276.39L458.58 294.89L426.54 276.39L426.54 239.39zM458.58 331.89L490.63 350.39L490.63 387.39L458.58 405.89L426.54 387.39L426.54 350.39zM490.63 387.39L522.67 405.89L522.67 442.89L490.63 461.39L458.58 442.89L458.58 405.89zM458.58 442.89L490.63 461.39L490.63 498.39L458.58 516.89L426.54 498.39L426.54 461.39zM458.58 553.89L490.63 572.39L490.63 609.39L458.58 627.89L426.54 609.39L426.54 572.39zM554.72 54.39L586.76 72.89L586.76 109.89L554.72 128.39L522.67 109.89L522.67 72.89zM554.72 165.39L586.76 183.89L586.76 220.89L554.72 239.39L522.67 220.89L522.67 183.89zM522.67 220.89L554.72 239.39L554.72 276.39L522.67 294.89L490.63 276.39L490.63 239.39zM554.72 276.39L586.76 294.89L586.76 331.89L554.72 350.39L522.67 331.89L522.67 294.89zM522.67 442.89L554.72 461.39L554.72 498.39L522.67 516.89L490.63 498.39L490.63 461.39zM554.72 498.39L586.76 516.89L586.76 553.89L554.72 572.39L522.67 553.89L522.67 516.89zM586.76 -1.11L618.8 17.39L618.8 54.39L586.76 72.89L554.72 54.39L554.72 17.39zM618.8 54.39L650.85 72.89L650.85 109.89L618.8 128.39L586.76 109.89L586.76 72.89zM586.76 109.89L618.8 128.39L618.8 165.39L586.76 183.89L554.72 165.39L554.72 128.39zM618.8 165.39L650.85 183.89L650.85 220.89L618.8 239.39L586.76 220.89L586.76 183.89zM586.76 220.89L618.8 239.39L618.8 276.39L586.76 294.89L554.72 276.39L554.72 239.39zM586.76 331.89L618.8 350.39L618.8 387.39L586.76 405.89L554.72 387.39L554.72 350.39zM618.8 387.39L650.85 405.89L650.85 442.89L618.8 461.39L586.76 442.89L586.76 405.89zM586.76 553.89L618.8 572.39L618.8 609.39L586.76 627.89L554.72 609.39L554.72 572.39zM650.85 -1.11L682.89 17.39L682.89 54.39L650.85 72.89L618.8 54.39L618.8 17.39zM650.85 109.89L682.89 128.39L682.89 165.39L650.85 183.89L618.8 165.39L618.8 128.39zM650.85 220.89L682.89 239.39L682.89 276.39L650.85 294.89L618.8 276.39L618.8 239.39zM682.89 387.39L714.93 405.89L714.93 442.89L682.89 461.39L650.85 442.89L650.85 405.89zM650.85 442.89L682.89 461.39L682.89 498.39L650.85 516.89L618.8 498.39L618.8 461.39zM682.89 498.39L714.93 516.89L714.93 553.89L682.89 572.39L650.85 553.89L650.85 516.89zM714.93 331.89L746.98 350.39L746.98 387.39L714.93 405.89L682.89 387.39L682.89 350.39zM746.98 387.39L779.02 405.89L779.02 442.89L746.98 461.39L714.93 442.89L714.93 405.89zM714.93 442.89L746.98 461.39L746.98 498.39L714.93 516.89L682.89 498.39L682.89 461.39zM746.98 498.39L779.02 516.89L779.02 553.89L746.98 572.39L714.93 553.89L714.93 516.89zM811.07 54.39L843.11 72.89L843.11 109.89L811.07 128.39L779.02 109.89L779.02 72.89zM779.02 109.89L811.07 128.39L811.07 165.39L779.02 183.89L746.98 165.39L746.98 128.39zM811.07 276.39L843.11 294.89L843.11 331.89L811.07 350.39L779.02 331.89L779.02 294.89zM843.11 -1.11L875.15 17.39L875.15 54.39L843.11 72.89L811.07 54.39L811.07 17.39zM843.11 109.89L875.15 128.39L875.15 165.39L843.11 183.89L811.07 165.39L811.07 128.39zM843.11 331.89L875.15 350.39L875.15 387.39L843.11 405.89L811.07 387.39L811.07 350.39zM875.15 387.39L907.2 405.89L907.2 442.89L875.15 461.39L843.11 442.89L843.11 405.89zM843.11 442.89L875.15 461.39L875.15 498.39L843.11 516.89L811.07 498.39L811.07 461.39zM939.24 387.39L971.29 405.89L971.29 442.89L939.24 461.39L907.2 442.89L907.2 405.89zM1003.33 54.39L1035.37 72.89L1035.37 109.89L1003.33 128.39L971.29 109.89L971.29 72.89zM1003.33 165.39L1035.37 183.89L1035.37 220.89L1003.33 239.39L971.29 220.89L971.29 183.89zM1003.33 276.39L1035.37 294.89L1035.37 331.89L1003.33 350.39L971.29 331.89L971.29 294.89zM1035.37 109.89L1067.42 128.39L1067.42 165.39L1035.37 183.89L1003.33 165.39L1003.33 128.39zM1067.42 165.39L1099.46 183.89L1099.46 220.89L1067.42 239.39L1035.37 220.89L1035.37 183.89zM1035.37 220.89L1067.42 239.39L1067.42 276.39L1035.37 294.89L1003.33 276.39L1003.33 239.39zM1067.42 387.39L1099.46 405.89L1099.46 442.89L1067.42 461.39L1035.37 442.89L1035.37 405.89zM1035.37 442.89L1067.42 461.39L1067.42 498.39L1035.37 516.89L1003.33 498.39L1003.33 461.39zM1131.5 54.39L1163.55 72.89L1163.55 109.89L1131.5 128.39L1099.46 109.89L1099.46 72.89zM1099.46 109.89L1131.5 128.39L1131.5 165.39L1099.46 183.89L1067.42 165.39L1067.42 128.39zM1131.5 165.39L1163.55 183.89L1163.55 220.89L1131.5 239.39L1099.46 220.89L1099.46 183.89zM1131.5 387.39L1163.55 405.89L1163.55 442.89L1131.5 461.39L1099.46 442.89L1099.46 405.89zM1099.46 553.89L1131.5 572.39L1131.5 609.39L1099.46 627.89L1067.42 609.39L1067.42 572.39zM1163.55 -1.11L1195.59 17.39L1195.59 54.39L1163.55 72.89L1131.5 54.39L1131.5 17.39zM1163.55 109.89L1195.59 128.39L1195.59 165.39L1163.55 183.89L1131.5 165.39L1131.5 128.39zM1195.59 165.39L1227.64 183.89L1227.64 220.89L1195.59 239.39L1163.55 220.89L1163.55 183.89zM1195.59 276.39L1227.64 294.89L1227.64 331.89L1195.59 350.39L1163.55 331.89L1163.55 294.89zM1163.55 331.89L1195.59 350.39L1195.59 387.39L1163.55 405.89L1131.5 387.39L1131.5 350.39zM1227.64 220.89L1259.68 239.39L1259.68 276.39L1227.64 294.89L1195.59 276.39L1195.59 239.39zM1259.68 387.39L1291.72 405.89L1291.72 442.89L1259.68 461.39L1227.64 442.89L1227.64 405.89zM1259.68 498.39L1291.72 516.89L1291.72 553.89L1259.68 572.39L1227.64 553.89L1227.64 516.89zM1291.72 -1.11L1323.77 17.39L1323.77 54.39L1291.72 72.89L1259.68 54.39L1259.68 17.39zM1323.77 165.39L1355.81 183.89L1355.81 220.89L1323.77 239.39L1291.72 220.89L1291.72 183.89zM1291.72 220.89L1323.77 239.39L1323.77 276.39L1291.72 294.89L1259.68 276.39L1259.68 239.39zM1355.81 -1.11L1387.86 17.39L1387.86 54.39L1355.81 72.89L1323.77 54.39L1323.77 17.39zM1355.81 220.89L1387.86 239.39L1387.86 276.39L1355.81 294.89L1323.77 276.39L1323.77 239.39zM1355.81 331.89L1387.86 350.39L1387.86 387.39L1355.81 405.89L1323.77 387.39L1323.77 350.39zM1355.81 442.89L1387.86 461.39L1387.86 498.39L1355.81 516.89L1323.77 498.39L1323.77 461.39zM1387.86 498.39L1419.9 516.89L1419.9 553.89L1387.86 572.39L1355.81 553.89L1355.81 516.89zM1355.81 553.89L1387.86 572.39L1387.86 609.39L1355.81 627.89L1323.77 609.39L1323.77 572.39zM1451.94 54.39L1483.99 72.89L1483.99 109.89L1451.94 128.39L1419.9 109.89L1419.9 72.89zM1451.94 276.39L1483.99 294.89L1483.99 331.89L1451.94 350.39L1419.9 331.89L1419.9 294.89zM1419.9 331.89L1451.94 350.39L1451.94 387.39L1419.9 405.89L1387.86 387.39L1387.86 350.39zM1419.9 442.89L1451.94 461.39L1451.94 498.39L1419.9 516.89L1387.86 498.39L1387.86 461.39z" stroke="rgba(0, 170, 19, 0.3)" stroke-width="2"></path></g><defs><mask id="SvgjsMask1282"><rect width="1440" height="560" fill="#ffffff"></rect></mask></defs></svg>