<svg version="1.1" id="Layer_1" xmlns="http://www.w3.org/2000/svg" xmlns:xlink="http://www.w3.org/1999/xlink" x="0px" y="0px"
	 width="100%" viewBox="0 0 1549 559" enable-background="new 0 0 1549 559" xml:space="preserve">
<path fill="none" opacity="1.000000" stroke="none" 
	d="
M1008.000000,560.000000 
	C672.039734,560.000000 336.579437,560.000000 1.059572,560.000000 
	C1.059572,373.728455 1.059572,187.456879 1.059572,1.092658 
	C517.210449,1.092658 1033.420898,1.092658 1549.815674,1.092658 
	C1549.815674,187.333191 1549.815674,373.666565 1549.815674,560.000000 
	C1369.456665,560.000000 1188.978271,560.000000 1008.000000,560.000000 
M203.654099,335.158936 
	C220.254105,340.818115 236.839981,346.519379 253.465744,352.101868 
	C256.902435,353.255890 260.483215,353.985107 264.005249,354.879944 
	C271.960571,356.901062 279.867126,359.169678 287.904572,360.785187 
	C291.222504,361.452026 295.016174,361.344147 295.567413,356.141754 
	C296.158386,350.564636 294.759613,347.056244 289.968170,346.079010 
	C285.494965,345.166687 280.823181,344.992950 276.234344,344.947540 
	C271.460297,344.900238 266.512146,346.313995 261.937103,345.473083 
	C250.555038,343.380951 239.084274,341.144989 228.134491,337.506195 
	C217.515945,333.977448 207.502243,328.628510 197.265808,323.267090 
	C184.322342,288.589020 185.209854,253.775146 196.555099,218.971756 
	C202.774490,199.892746 211.860184,182.167618 222.916656,165.422073 
	C223.795914,164.090408 223.413422,161.925659 223.617294,160.148071 
	C221.718460,160.196991 219.646835,159.785080 217.965958,160.415314 
	C216.008957,161.149048 214.293350,162.675461 212.645828,164.063095 
	C191.110443,182.201523 172.172714,202.680969 157.023880,226.493454 
	C145.595581,244.457611 137.167480,263.647217 133.143143,284.721619 
	C129.444580,304.090088 129.477692,323.459290 132.072281,342.882233 
	C134.680069,362.404083 140.056717,381.115753 151.740143,397.233765 
	C176.392334,431.242828 211.199280,449.328217 251.315109,457.531921 
	C281.256775,463.654999 311.493225,461.461365 340.884277,453.737793 
	C379.562531,443.573669 413.519684,423.781708 444.506073,398.787476 
	C445.666992,397.851074 446.555420,394.426361 445.978271,393.896759 
	C444.372986,392.423767 441.951355,391.217773 439.806671,391.138641 
	C437.847534,391.066345 435.812286,392.567688 433.839081,393.440094 
	C416.446808,401.129211 398.578827,407.470856 379.865204,410.958405 
	C349.057129,416.699921 318.580688,414.973297 288.513245,405.987610 
	C249.881256,394.442413 220.629044,371.614319 203.654099,335.158936 
M91.546761,289.216858 
	C93.747513,279.316803 95.382492,269.249451 98.250984,259.546814 
	C108.429604,225.117706 126.345711,195.035278 150.313492,168.394318 
	C187.886810,126.630394 233.706589,98.453659 288.269623,85.009468 
	C323.431519,76.345673 359.126282,75.603912 394.959564,80.163429 
	C398.390961,80.600052 401.436646,80.947983 402.741638,77.046143 
	C404.007660,73.260880 401.720551,71.179665 398.599792,69.647293 
	C358.835815,50.122059 317.142487,39.075119 272.514252,41.091400 
	C241.364731,42.498722 211.740265,49.969242 183.612198,63.506779 
	C156.807251,76.407509 133.231445,93.787109 111.448975,113.917793 
	C76.510323,146.207031 58.689590,186.311966 55.799053,233.421967 
	C53.606495,269.156189 59.735172,303.763885 70.425034,337.683899 
	C73.420090,347.187500 77.028572,356.500946 80.479317,365.856018 
	C81.671959,369.089294 84.234459,370.760651 87.592430,369.519653 
	C90.762604,368.348083 92.009552,365.660919 91.278275,362.238007 
	C91.173843,361.749207 91.045166,361.263153 90.978851,360.768982 
	C87.814178,337.185883 87.463966,313.618347 91.546761,289.216858 
M264.853424,292.885773 
	C272.507263,292.678192 280.208496,292.940674 287.806030,292.174683 
	C310.312592,289.905487 333.010956,288.491577 355.201324,284.396851 
	C383.262421,279.218811 408.043335,266.058624 430.240570,247.951233 
	C449.549866,232.199661 461.166046,212.314438 463.491211,187.539886 
	C466.201202,158.665207 455.213348,136.015778 430.206055,121.019112 
	C405.568329,106.244064 377.988068,101.929214 349.870453,100.261368 
	C348.249023,100.165192 345.532745,101.858376 345.097870,103.266167 
	C344.689392,104.588394 346.191254,107.273453 347.613983,108.253792 
	C353.494568,112.305771 359.964569,115.536995 365.667114,119.805756 
	C378.816620,129.649124 388.896576,141.726578 391.253845,158.751068 
	C393.778290,176.983353 387.467926,192.941742 377.827911,207.716431 
	C361.037750,233.449814 336.810669,250.702927 309.972229,264.315155 
	C294.606720,272.108429 278.329346,278.094116 262.570435,285.135162 
	C260.829773,285.912872 259.799866,288.281311 258.440338,289.912018 
	C260.278229,290.896362 262.116089,291.880707 264.853424,292.885773 
M1087.390991,339.025574 
	C1093.410278,322.160797 1099.429565,305.295990 1105.517578,288.238892 
	C1093.427490,288.238892 1081.979248,288.238892 1070.549927,288.238892 
	C1066.566895,299.329956 1062.662476,310.201813 1058.758179,321.073669 
	C1058.421265,321.019745 1058.084229,320.965820 1057.747192,320.911865 
	C1056.302368,310.074280 1054.857544,299.236694 1053.405273,288.343658 
	C1037.135254,288.343658 1021.147034,288.343658 1005.126221,288.343658 
	C1007.215454,290.584290 1008.888123,292.933777 1011.080872,294.597870 
	C1014.267883,297.016388 1014.515503,299.383728 1013.130432,303.077606 
	C1007.461792,318.195923 1002.165466,333.453949 996.754089,348.668365 
	C996.288879,349.976349 995.985291,351.341827 995.515137,353.003998 
	C1006.596558,353.003998 1017.085632,353.103149 1027.567383,352.873047 
	C1028.816772,352.845612 1030.658813,351.267792 1031.151733,349.993195 
	C1034.273315,341.921387 1037.088013,333.731049 1040.014038,325.583435 
	C1040.697510,323.680298 1041.419800,321.791138 1042.124390,319.895569 
	C1042.450684,319.984253 1042.776978,320.072937 1043.103271,320.161621 
	C1044.544067,331.000793 1045.984985,341.839966 1047.431396,352.721924 
	C1059.379395,352.721924 1070.959351,352.721924 1082.496338,352.721924 
	C1084.100220,348.225861 1085.610352,343.992859 1087.390991,339.025574 
M1139.498413,287.995667 
	C1129.177734,287.995667 1118.857178,287.995667 1108.319336,287.995667 
	C1109.947510,289.837036 1110.853394,291.382568 1112.192749,292.284821 
	C1117.564453,295.903625 1118.110352,299.926544 1115.662109,306.063019 
	C1109.565430,321.343781 1104.407471,336.999023 1098.761475,352.815186 
	C1110.659546,352.815186 1122.098389,352.815186 1133.739258,352.815186 
	C1137.646729,341.976044 1141.547974,331.153992 1145.449341,320.331940 
	C1145.847778,320.385162 1146.246216,320.438416 1146.644653,320.491638 
	C1148.076172,331.263245 1149.507690,342.034851 1150.948975,352.880066 
	C1162.740234,352.880066 1174.215332,352.880066 1185.941406,352.880066 
	C1193.611572,331.407776 1201.274536,309.955353 1209.050293,288.187317 
	C1197.153076,288.187317 1185.715942,288.187317 1174.078979,288.187317 
	C1170.141846,299.135864 1166.207153,310.077484 1162.272583,321.019104 
	C1161.912109,320.900421 1161.551636,320.781738 1161.191284,320.663055 
	C1159.757202,309.843872 1158.323242,299.024689 1156.861450,287.995667 
	C1151.135254,287.995667 1145.816406,287.995667 1139.498413,287.995667 
M760.445007,337.841064 
	C758.720276,342.765625 756.995544,347.690186 755.134766,353.003204 
	C783.789429,353.003204 811.772522,353.027435 839.755005,352.912811 
	C840.851135,352.908325 842.563721,351.811066 842.937073,350.824799 
	C846.110840,342.440460 849.040527,333.963715 852.155029,325.200317 
	C840.296631,325.200317 828.868652,325.200317 817.259216,325.200317 
	C815.003967,331.432465 812.755554,337.645721 810.549561,343.741608 
	C804.769409,343.741608 799.362671,343.741608 793.399231,343.741608 
	C799.051025,327.892731 804.558716,312.447906 809.973328,297.264160 
	C815.886902,297.264160 821.298096,297.264160 827.107056,297.264160 
	C824.883545,303.614868 822.782043,309.616913 820.546021,316.003265 
	C831.809875,316.003265 842.300232,316.046570 852.789001,315.938171 
	C853.872681,315.927002 855.624268,315.267609 855.921814,314.477936 
	C859.178223,305.834747 862.207031,297.105774 865.358154,288.229797 
	C831.472229,288.229797 798.235657,288.229797 764.230896,288.229797 
	C766.853271,290.739685 768.799316,292.988739 771.124695,294.731720 
	C774.153015,297.001587 774.458740,299.308075 773.120605,302.811340 
	C768.783813,314.165802 764.830444,325.666748 760.445007,337.841064 
M1352.362915,342.053925 
	C1351.560303,342.700104 1350.776367,343.876190 1349.951904,343.905518 
	C1345.012817,344.080933 1340.064453,343.992462 1334.484985,343.992462 
	C1340.187744,327.987671 1345.692383,312.539124 1351.146484,297.232544 
	C1357.005981,297.232544 1362.423950,297.232544 1368.305298,297.232544 
	C1366.065918,303.586090 1363.945801,309.601288 1361.689453,316.003174 
	C1372.872192,316.003174 1383.364014,316.044952 1393.854614,315.941284 
	C1394.955322,315.930420 1396.744507,315.324249 1397.037109,314.549713 
	C1400.307251,305.891083 1403.345947,297.145020 1406.491455,288.297577 
	C1372.660278,288.297577 1339.444092,288.297577 1305.676636,288.297577 
	C1308.071533,290.670563 1309.864380,292.848206 1312.047852,294.514191 
	C1315.131348,296.866974 1315.664307,299.152405 1314.223267,302.949280 
	C1308.668335,317.586426 1303.554077,332.390930 1298.292114,347.138916 
	C1297.646484,348.948425 1297.098999,350.792938 1296.446777,352.803802 
	C1325.829712,352.803802 1354.628906,352.803802 1383.536377,352.803802 
	C1386.795776,343.589355 1390.004150,334.519257 1393.309082,325.176453 
	C1381.397217,325.176453 1369.952148,325.176453 1358.396851,325.176453 
	C1356.458496,330.625549 1354.564087,335.950806 1352.362915,342.053925 
M496.228729,306.641235 
	C490.768738,321.966461 485.308716,337.291687 479.754425,352.881531 
	C506.050446,352.881531 531.840576,352.881531 557.894714,352.881531 
	C558.898621,350.052277 559.903503,347.220184 561.079590,343.905518 
	C546.331299,343.905518 532.398010,343.905518 517.987244,343.905518 
	C519.885498,338.532440 521.855652,333.606476 523.330566,328.536407 
	C524.211975,325.506531 525.843689,324.860535 528.725403,324.940430 
	C535.696960,325.133606 542.677368,325.003143 549.732361,325.003143 
	C550.833252,321.964569 551.841309,319.182281 553.054016,315.835083 
	C544.454346,315.835083 536.411682,315.835083 527.954407,315.835083 
	C529.800232,310.630157 531.739990,306.023041 533.030762,301.240814 
	C534.015259,297.592834 535.991516,296.870239 539.453613,296.924103 
	C552.233337,297.122986 565.018127,297.003143 577.871277,297.003143 
	C578.952271,293.913177 579.918030,291.152802 580.877258,288.410858 
	C550.130005,288.410858 519.824524,288.410858 489.851166,288.410858 
	C491.085449,289.852783 492.041779,291.607513 493.514923,292.576904 
	C498.922058,296.135101 499.569611,300.559692 496.228729,306.641235 
M684.500000,353.003143 
	C702.612915,353.003143 720.725830,353.003143 738.868469,353.003143 
	C739.971191,349.871368 740.937866,347.125824 742.125244,343.753448 
	C727.405518,343.753448 713.382935,343.753448 699.005615,343.753448 
	C700.980164,338.220673 702.909119,333.264008 704.488831,328.198425 
	C705.269043,325.696350 706.482910,324.869263 709.100220,324.938324 
	C716.248901,325.126892 723.405762,325.003204 730.736206,325.003204 
	C731.805603,322.044739 732.809692,319.266968 734.015259,315.931915 
	C725.473755,315.931915 717.434570,315.931915 708.924072,315.931915 
	C710.832214,310.548157 712.735291,305.765717 714.193359,300.851227 
	C715.112183,297.754822 716.689392,296.870331 719.877808,296.919647 
	C732.839294,297.120331 745.805664,297.003143 758.863159,297.003143 
	C759.937561,293.944397 760.912476,291.169067 761.879883,288.415039 
	C731.162109,288.415039 700.844360,288.415039 670.924683,288.415039 
	C672.834473,290.534058 674.467896,292.991211 676.692017,294.662109 
	C679.970032,297.124695 679.949646,299.550873 678.602966,303.152527 
	C673.005310,318.122833 667.743896,333.218994 662.377625,348.275513 
	C661.861145,349.724762 661.471802,351.219269 660.929016,353.003143 
	C668.851929,353.003143 676.175964,353.003143 684.500000,353.003143 
M1214.010132,319.421814 
	C1210.071167,330.484222 1206.132080,341.546631 1202.052856,353.002625 
	C1227.631348,353.002625 1252.598999,353.036560 1277.565430,352.896576 
	C1278.742920,352.890015 1280.327393,351.580627 1280.989746,350.449158 
	C1282.049316,348.638702 1282.494629,346.468597 1283.418945,343.822601 
	C1268.850952,343.822601 1254.845703,343.822601 1240.323242,343.822601 
	C1242.710327,337.150848 1244.875488,331.099548 1247.067505,324.972900 
	C1255.507568,324.972900 1263.646362,324.972900 1272.084961,324.972900 
	C1273.129150,322.059326 1274.144287,319.227051 1275.379395,315.781036 
	C1266.617432,315.781036 1258.726562,315.781036 1250.276367,315.781036 
	C1252.639648,309.192383 1254.812622,303.134033 1257.011719,297.002869 
	C1269.264038,297.002869 1281.269409,296.572906 1293.221191,297.186523 
	C1299.088379,297.487793 1301.795654,295.540680 1302.643433,290.115906 
	C1302.740479,289.494446 1302.830444,288.871948 1302.899170,288.414032 
	C1272.457153,288.414032 1242.167480,288.414032 1212.327637,288.414032 
	C1214.434448,290.752014 1216.330200,293.371338 1218.734741,295.382233 
	C1221.234985,297.473114 1221.383057,299.394073 1220.212646,302.254486 
	C1218.008789,307.640656 1216.212402,313.193512 1214.010132,319.421814 
M585.519287,353.003784 
	C607.790222,353.003784 630.061157,353.003784 652.415833,353.003784 
	C653.476807,349.884705 654.412048,347.135162 655.497131,343.945312 
	C640.954834,343.945312 627.021973,343.945312 612.444458,343.945312 
	C619.142029,325.121002 625.678345,306.749939 632.222534,288.356628 
	C615.830994,288.356628 599.988159,288.356628 583.907349,288.356628 
	C586.156982,290.665436 587.887512,292.967438 590.110474,294.598267 
	C593.361389,296.983307 593.549438,299.367920 592.171265,303.048248 
	C586.512878,318.158020 581.218506,333.404205 575.810303,348.607361 
	C575.338257,349.934296 575.012878,351.313416 574.521912,353.003784 
	C578.220337,353.003784 581.374756,353.003784 585.519287,353.003784 
M1465.225464,302.785553 
	C1465.917969,300.936646 1466.610352,299.087738 1467.260742,297.351349 
	C1467.788330,297.214722 1468.107422,297.061768 1468.427734,297.059692 
	C1473.089233,297.029236 1477.750977,297.010162 1482.412598,297.005798 
	C1490.179321,296.998535 1490.782471,296.422546 1491.562256,288.358215 
	C1464.237427,288.358215 1436.895630,288.358215 1408.968018,288.358215 
	C1414.995972,294.077057 1420.453003,299.417908 1426.111816,304.535736 
	C1428.145630,306.375122 1428.537354,307.915527 1427.554565,310.553833 
	C1422.965210,322.872070 1418.633545,335.286316 1414.222656,347.670837 
	C1413.639893,349.307068 1413.131470,350.969788 1412.462402,353.003815 
	C1423.133667,353.003815 1433.119629,352.855164 1443.096313,353.089935 
	C1446.292480,353.165161 1447.699951,352.206207 1448.748413,349.168091 
	C1454.014526,333.908875 1459.538086,318.738495 1465.225464,302.785553 
M477.334717,297.003845 
	C484.888397,297.002777 484.888397,297.002777 486.205994,288.318359 
	C458.877014,288.318359 431.533661,288.318359 403.437439,288.318359 
	C408.899780,293.507507 413.603455,298.410553 418.782318,302.745972 
	C422.352936,305.735046 423.036316,308.374390 421.301666,312.848389 
	C416.210052,325.980682 411.719696,339.346039 406.932007,352.793915 
	C418.865753,352.793915 430.304626,352.793915 441.844543,352.793915 
	C446.887756,338.706726 451.854736,324.764587 456.877106,310.842377 
	C458.507141,306.323822 459.075378,300.159302 462.330902,297.846039 
	C465.574219,295.541473 471.580170,297.125031 477.334717,297.003845 
M920.087280,286.167175 
	C928.738892,284.364258 937.082581,285.019409 945.286682,288.959839 
	C942.705750,294.846924 940.294434,300.347107 937.367920,307.022461 
	C950.028503,302.228241 961.411011,297.917969 972.958496,293.545227 
	C968.464539,281.882080 964.061340,270.454590 959.298767,258.094421 
	C956.238586,264.749451 953.635315,270.410828 951.065613,275.999207 
	C924.221741,268.425537 905.917236,271.844116 890.433167,287.963715 
	C878.564148,300.319916 873.677795,315.280548 875.631409,332.977844 
	C878.868713,331.751404 881.397766,330.503113 884.072205,329.850494 
	C887.756165,328.951508 888.738953,326.997559 888.842834,323.205627 
	C889.322205,305.705902 901.912842,290.810303 920.087280,286.167175 
M886.025269,357.149384 
	C886.026794,358.089325 885.758057,359.132233 886.070923,359.953613 
	C890.123352,370.593323 894.258606,381.201538 898.736816,392.756592 
	C901.769165,386.252411 904.454834,380.491730 907.121765,374.771301 
	C929.920776,383.896149 951.251892,378.342743 965.234680,365.400879 
	C978.867737,352.782623 984.357788,337.001190 982.492554,318.100464 
	C979.390503,319.194733 976.975098,320.277100 974.445740,320.886078 
	C970.471924,321.842773 969.476685,323.993011 969.175232,328.151886 
	C967.133667,356.316315 938.678345,373.496338 912.790771,362.054871 
	C915.225281,356.420532 917.667297,350.768890 920.601562,343.978088 
	C908.531311,348.563293 897.607971,352.712860 886.025269,357.149384 
z"/>
<path fill="#629E04" opacity="1.000000" stroke="none" 
	d="
M91.465767,289.646271 
	C87.463966,313.618347 87.814178,337.185883 90.978851,360.768982 
	C91.045166,361.263153 91.173843,361.749207 91.278275,362.238007 
	C92.009552,365.660919 90.762604,368.348083 87.592430,369.519653 
	C84.234459,370.760651 81.671959,369.089294 80.479317,365.856018 
	C77.028572,356.500946 73.420090,347.187500 70.425034,337.683899 
	C59.735172,303.763885 53.606495,269.156189 55.799053,233.421967 
	C58.689590,186.311966 76.510323,146.207031 111.448975,113.917793 
	C133.231445,93.787109 156.807251,76.407509 183.612198,63.506779 
	C211.740265,49.969242 241.364731,42.498722 272.514252,41.091400 
	C317.142487,39.075119 358.835815,50.122059 398.599792,69.647293 
	C401.720551,71.179665 404.007660,73.260880 402.741638,77.046143 
	C401.436646,80.947983 398.390961,80.600052 394.959564,80.163429 
	C359.126282,75.603912 323.431519,76.345673 288.269623,85.009468 
	C233.706589,98.453659 187.886810,126.630394 150.313492,168.394318 
	C126.345711,195.035278 108.429604,225.117706 98.250984,259.546814 
	C95.382492,269.249451 93.747513,279.316803 91.465767,289.646271 
z"/>
<path fill="#056904" opacity="1.000000" stroke="none" 
	d="
M202.698761,335.055969 
	C220.629044,371.614319 249.881256,394.442413 288.513245,405.987610 
	C318.580688,414.973297 349.057129,416.699921 379.865204,410.958405 
	C398.578827,407.470856 416.446808,401.129211 433.839081,393.440094 
	C435.812286,392.567688 437.847534,391.066345 439.806671,391.138641 
	C441.951355,391.217773 444.372986,392.423767 445.978271,393.896759 
	C446.555420,394.426361 445.666992,397.851074 444.506073,398.787476 
	C413.519684,423.781708 379.562531,443.573669 340.884277,453.737793 
	C311.493225,461.461365 281.256775,463.654999 251.315109,457.531921 
	C211.199280,449.328217 176.392334,431.242828 151.740143,397.233765 
	C140.056717,381.115753 134.680069,362.404083 132.072281,342.882233 
	C129.477692,323.459290 129.444580,304.090088 133.143143,284.721619 
	C137.167480,263.647217 145.595581,244.457611 157.023880,226.493454 
	C172.172714,202.680969 191.110443,182.201523 212.645828,164.063095 
	C214.293350,162.675461 216.008957,161.149048 217.965958,160.415314 
	C219.646835,159.785080 221.718460,160.196991 223.617294,160.148071 
	C223.413422,161.925659 223.795914,164.090408 222.916656,165.422073 
	C211.860184,182.167618 202.774490,199.892746 196.555099,218.971756 
	C185.209854,253.775146 184.322342,288.589020 196.862488,323.646851 
	C188.740921,321.994171 184.959198,314.824036 179.010452,310.461578 
	C177.074219,309.041626 175.650467,306.071381 175.236679,303.601685 
	C174.336014,298.226105 171.047562,294.018860 166.033234,293.223785 
	C161.317810,292.476044 156.112701,295.719543 154.226273,300.581085 
	C152.283157,305.588715 153.744385,310.408539 158.740417,313.337769 
	C164.570389,316.755920 170.679489,319.697327 176.659164,322.861267 
	C178.561066,323.867554 180.381638,325.044067 182.333984,325.935547 
	C189.099777,329.024902 195.907181,332.023102 202.698761,335.055969 
z"/>
<path fill="#05AA04" opacity="1.000000" stroke="none" 
	d="
M264.403687,292.875427 
	C262.116089,291.880707 260.278229,290.896362 258.440338,289.912018 
	C259.799866,288.281311 260.829773,285.912872 262.570435,285.135162 
	C278.329346,278.094116 294.606720,272.108429 309.972229,264.315155 
	C336.810669,250.702927 361.037750,233.449814 377.827911,207.716431 
	C387.467926,192.941742 393.778290,176.983353 391.253845,158.751068 
	C388.896576,141.726578 378.816620,129.649124 365.667114,119.805756 
	C359.964569,115.536995 353.494568,112.305771 347.613983,108.253792 
	C346.191254,107.273453 344.689392,104.588394 345.097870,103.266167 
	C345.532745,101.858376 348.249023,100.165192 349.870453,100.261368 
	C377.988068,101.929214 405.568329,106.244064 430.206055,121.019112 
	C455.213348,136.015778 466.201202,158.665207 463.491211,187.539886 
	C461.166046,212.314438 449.549866,232.199661 430.240570,247.951233 
	C408.043335,266.058624 383.262421,279.218811 355.201324,284.396851 
	C333.010956,288.491577 310.312592,289.905487 287.806030,292.174683 
	C280.208496,292.940674 272.507263,292.678192 264.403687,292.875427 
z"/>
<path fill="#030303" opacity="1.000000" stroke="none" 
	d="
M1087.255737,339.392700 
	C1085.610352,343.992859 1084.100220,348.225861 1082.496338,352.721924 
	C1070.959351,352.721924 1059.379395,352.721924 1047.431396,352.721924 
	C1045.984985,341.839966 1044.544067,331.000793 1043.103271,320.161621 
	C1042.776978,320.072937 1042.450684,319.984253 1042.124390,319.895569 
	C1041.419800,321.791138 1040.697510,323.680298 1040.014038,325.583435 
	C1037.088013,333.731049 1034.273315,341.921387 1031.151733,349.993195 
	C1030.658813,351.267792 1028.816772,352.845612 1027.567383,352.873047 
	C1017.085632,353.103149 1006.596558,353.003998 995.515137,353.003998 
	C995.985291,351.341827 996.288879,349.976349 996.754089,348.668365 
	C1002.165466,333.453949 1007.461792,318.195923 1013.130432,303.077606 
	C1014.515503,299.383728 1014.267883,297.016388 1011.080872,294.597870 
	C1008.888123,292.933777 1007.215454,290.584290 1005.126221,288.343658 
	C1021.147034,288.343658 1037.135254,288.343658 1053.405273,288.343658 
	C1054.857544,299.236694 1056.302368,310.074280 1057.747192,320.911865 
	C1058.084229,320.965820 1058.421265,321.019745 1058.758179,321.073669 
	C1062.662476,310.201813 1066.566895,299.329956 1070.549927,288.238892 
	C1081.979248,288.238892 1093.427490,288.238892 1105.517578,288.238892 
	C1099.429565,305.295990 1093.410278,322.160797 1087.255737,339.392700 
z"/>
<path fill="#030303" opacity="1.000000" stroke="none" 
	d="
M1139.998047,287.995667 
	C1145.816406,287.995667 1151.135254,287.995667 1156.861450,287.995667 
	C1158.323242,299.024689 1159.757202,309.843872 1161.191284,320.663055 
	C1161.551636,320.781738 1161.912109,320.900421 1162.272583,321.019104 
	C1166.207153,310.077484 1170.141846,299.135864 1174.078979,288.187317 
	C1185.715942,288.187317 1197.153076,288.187317 1209.050293,288.187317 
	C1201.274536,309.955353 1193.611572,331.407776 1185.941406,352.880066 
	C1174.215332,352.880066 1162.740234,352.880066 1150.948975,352.880066 
	C1149.507690,342.034851 1148.076172,331.263245 1146.644653,320.491638 
	C1146.246216,320.438416 1145.847778,320.385162 1145.449341,320.331940 
	C1141.547974,331.153992 1137.646729,341.976044 1133.739258,352.815186 
	C1122.098389,352.815186 1110.659546,352.815186 1098.761475,352.815186 
	C1104.407471,336.999023 1109.565430,321.343781 1115.662109,306.063019 
	C1118.110352,299.926544 1117.564453,295.903625 1112.192749,292.284821 
	C1110.853394,291.382568 1109.947510,289.837036 1108.319336,287.995667 
	C1118.857178,287.995667 1129.177734,287.995667 1139.998047,287.995667 
z"/>
<path fill="#020202" opacity="1.000000" stroke="none" 
	d="
M760.587219,337.476166 
	C764.830444,325.666748 768.783813,314.165802 773.120605,302.811340 
	C774.458740,299.308075 774.153015,297.001587 771.124695,294.731720 
	C768.799316,292.988739 766.853271,290.739685 764.230896,288.229797 
	C798.235657,288.229797 831.472229,288.229797 865.358154,288.229797 
	C862.207031,297.105774 859.178223,305.834747 855.921814,314.477936 
	C855.624268,315.267609 853.872681,315.927002 852.789001,315.938171 
	C842.300232,316.046570 831.809875,316.003265 820.546021,316.003265 
	C822.782043,309.616913 824.883545,303.614868 827.107056,297.264160 
	C821.298096,297.264160 815.886902,297.264160 809.973328,297.264160 
	C804.558716,312.447906 799.051025,327.892731 793.399231,343.741608 
	C799.362671,343.741608 804.769409,343.741608 810.549561,343.741608 
	C812.755554,337.645721 815.003967,331.432465 817.259216,325.200317 
	C828.868652,325.200317 840.296631,325.200317 852.155029,325.200317 
	C849.040527,333.963715 846.110840,342.440460 842.937073,350.824799 
	C842.563721,351.811066 840.851135,352.908325 839.755005,352.912811 
	C811.772522,353.027435 783.789429,353.003204 755.134766,353.003204 
	C756.995544,347.690186 758.720276,342.765625 760.587219,337.476166 
z"/>
<path fill="#020202" opacity="1.000000" stroke="none" 
	d="
M1352.516357,341.665009 
	C1354.564087,335.950806 1356.458496,330.625549 1358.396851,325.176453 
	C1369.952148,325.176453 1381.397217,325.176453 1393.309082,325.176453 
	C1390.004150,334.519257 1386.795776,343.589355 1383.536377,352.803802 
	C1354.628906,352.803802 1325.829712,352.803802 1296.446777,352.803802 
	C1297.098999,350.792938 1297.646484,348.948425 1298.292114,347.138916 
	C1303.554077,332.390930 1308.668335,317.586426 1314.223267,302.949280 
	C1315.664307,299.152405 1315.131348,296.866974 1312.047852,294.514191 
	C1309.864380,292.848206 1308.071533,290.670563 1305.676636,288.297577 
	C1339.444092,288.297577 1372.660278,288.297577 1406.491455,288.297577 
	C1403.345947,297.145020 1400.307251,305.891083 1397.037109,314.549713 
	C1396.744507,315.324249 1394.955322,315.930420 1393.854614,315.941284 
	C1383.364014,316.044952 1372.872192,316.003174 1361.689453,316.003174 
	C1363.945801,309.601288 1366.065918,303.586090 1368.305298,297.232544 
	C1362.423950,297.232544 1357.005981,297.232544 1351.146484,297.232544 
	C1345.692383,312.539124 1340.187744,327.987671 1334.484985,343.992462 
	C1340.064453,343.992462 1345.012817,344.080933 1349.951904,343.905518 
	C1350.776367,343.876190 1351.560303,342.700104 1352.516357,341.665009 
z"/>
<path fill="#020202" opacity="1.000000" stroke="none" 
	d="
M496.367981,306.278564 
	C499.569611,300.559692 498.922058,296.135101 493.514923,292.576904 
	C492.041779,291.607513 491.085449,289.852783 489.851166,288.410858 
	C519.824524,288.410858 550.130005,288.410858 580.877258,288.410858 
	C579.918030,291.152802 578.952271,293.913177 577.871277,297.003143 
	C565.018127,297.003143 552.233337,297.122986 539.453613,296.924103 
	C535.991516,296.870239 534.015259,297.592834 533.030762,301.240814 
	C531.739990,306.023041 529.800232,310.630157 527.954407,315.835083 
	C536.411682,315.835083 544.454346,315.835083 553.054016,315.835083 
	C551.841309,319.182281 550.833252,321.964569 549.732361,325.003143 
	C542.677368,325.003143 535.696960,325.133606 528.725403,324.940430 
	C525.843689,324.860535 524.211975,325.506531 523.330566,328.536407 
	C521.855652,333.606476 519.885498,338.532440 517.987244,343.905518 
	C532.398010,343.905518 546.331299,343.905518 561.079590,343.905518 
	C559.903503,347.220184 558.898621,350.052277 557.894714,352.881531 
	C531.840576,352.881531 506.050446,352.881531 479.754425,352.881531 
	C485.308716,337.291687 490.768738,321.966461 496.367981,306.278564 
z"/>
<path fill="#020202" opacity="1.000000" stroke="none" 
	d="
M684.000000,353.003143 
	C676.175964,353.003143 668.851929,353.003143 660.929016,353.003143 
	C661.471802,351.219269 661.861145,349.724762 662.377625,348.275513 
	C667.743896,333.218994 673.005310,318.122833 678.602966,303.152527 
	C679.949646,299.550873 679.970032,297.124695 676.692017,294.662109 
	C674.467896,292.991211 672.834473,290.534058 670.924683,288.415039 
	C700.844360,288.415039 731.162109,288.415039 761.879883,288.415039 
	C760.912476,291.169067 759.937561,293.944397 758.863159,297.003143 
	C745.805664,297.003143 732.839294,297.120331 719.877808,296.919647 
	C716.689392,296.870331 715.112183,297.754822 714.193359,300.851227 
	C712.735291,305.765717 710.832214,310.548157 708.924072,315.931915 
	C717.434570,315.931915 725.473755,315.931915 734.015259,315.931915 
	C732.809692,319.266968 731.805603,322.044739 730.736206,325.003204 
	C723.405762,325.003204 716.248901,325.126892 709.100220,324.938324 
	C706.482910,324.869263 705.269043,325.696350 704.488831,328.198425 
	C702.909119,333.264008 700.980164,338.220673 699.005615,343.753448 
	C713.382935,343.753448 727.405518,343.753448 742.125244,343.753448 
	C740.937866,347.125824 739.971191,349.871368 738.868469,353.003143 
	C720.725830,353.003143 702.612915,353.003143 684.000000,353.003143 
z"/>
<path fill="#020202" opacity="1.000000" stroke="none" 
	d="
M1214.128418,319.049438 
	C1216.212402,313.193512 1218.008789,307.640656 1220.212646,302.254486 
	C1221.383057,299.394073 1221.234985,297.473114 1218.734741,295.382233 
	C1216.330200,293.371338 1214.434448,290.752014 1212.327637,288.414032 
	C1242.167480,288.414032 1272.457153,288.414032 1302.899170,288.414032 
	C1302.830444,288.871948 1302.740479,289.494446 1302.643433,290.115906 
	C1301.795654,295.540680 1299.088379,297.487793 1293.221191,297.186523 
	C1281.269409,296.572906 1269.264038,297.002869 1257.011719,297.002869 
	C1254.812622,303.134033 1252.639648,309.192383 1250.276367,315.781036 
	C1258.726562,315.781036 1266.617432,315.781036 1275.379395,315.781036 
	C1274.144287,319.227051 1273.129150,322.059326 1272.084961,324.972900 
	C1263.646362,324.972900 1255.507568,324.972900 1247.067505,324.972900 
	C1244.875488,331.099548 1242.710327,337.150848 1240.323242,343.822601 
	C1254.845703,343.822601 1268.850952,343.822601 1283.418945,343.822601 
	C1282.494629,346.468597 1282.049316,348.638702 1280.989746,350.449158 
	C1280.327393,351.580627 1278.742920,352.890015 1277.565430,352.896576 
	C1252.598999,353.036560 1227.631348,353.002625 1202.052856,353.002625 
	C1206.132080,341.546631 1210.071167,330.484222 1214.128418,319.049438 
z"/>
<path fill="#020202" opacity="1.000000" stroke="none" 
	d="
M585.024231,353.003784 
	C581.374756,353.003784 578.220337,353.003784 574.521912,353.003784 
	C575.012878,351.313416 575.338257,349.934296 575.810303,348.607361 
	C581.218506,333.404205 586.512878,318.158020 592.171265,303.048248 
	C593.549438,299.367920 593.361389,296.983307 590.110474,294.598267 
	C587.887512,292.967438 586.156982,290.665436 583.907349,288.356628 
	C599.988159,288.356628 615.830994,288.356628 632.222534,288.356628 
	C625.678345,306.749939 619.142029,325.121002 612.444458,343.945312 
	C627.021973,343.945312 640.954834,343.945312 655.497131,343.945312 
	C654.412048,347.135162 653.476807,349.884705 652.415833,353.003784 
	C630.061157,353.003784 607.790222,353.003784 585.024231,353.003784 
z"/>
<path fill="#020202" opacity="1.000000" stroke="none" 
	d="
M1465.098267,303.161194 
	C1459.538086,318.738495 1454.014526,333.908875 1448.748413,349.168091 
	C1447.699951,352.206207 1446.292480,353.165161 1443.096313,353.089935 
	C1433.119629,352.855164 1423.133667,353.003815 1412.462402,353.003815 
	C1413.131470,350.969788 1413.639893,349.307068 1414.222656,347.670837 
	C1418.633545,335.286316 1422.965210,322.872070 1427.554565,310.553833 
	C1428.537354,307.915527 1428.145630,306.375122 1426.111816,304.535736 
	C1420.453003,299.417908 1414.995972,294.077057 1408.968018,288.358215 
	C1436.895630,288.358215 1464.237427,288.358215 1491.562256,288.358215 
	C1490.782471,296.422546 1490.179321,296.998535 1482.412598,297.005798 
	C1477.750977,297.010162 1473.089233,297.029236 1468.427734,297.059692 
	C1468.107422,297.061768 1467.788330,297.214722 1467.260742,297.351349 
	C1466.610352,299.087738 1465.917969,300.936646 1465.098267,303.161194 
z"/>
<path fill="#020202" opacity="1.000000" stroke="none" 
	d="
M476.854797,297.003845 
	C471.580170,297.125031 465.574219,295.541473 462.330902,297.846039 
	C459.075378,300.159302 458.507141,306.323822 456.877106,310.842377 
	C451.854736,324.764587 446.887756,338.706726 441.844543,352.793915 
	C430.304626,352.793915 418.865753,352.793915 406.932007,352.793915 
	C411.719696,339.346039 416.210052,325.980682 421.301666,312.848389 
	C423.036316,308.374390 422.352936,305.735046 418.782318,302.745972 
	C413.603455,298.410553 408.899780,293.507507 403.437439,288.318359 
	C431.533661,288.318359 458.877014,288.318359 486.205994,288.318359 
	C484.888397,297.002777 484.888397,297.002777 476.854797,297.003845 
z"/>
<path fill="#060606" opacity="1.000000" stroke="none" 
	d="
M919.706909,286.349792 
	C901.912842,290.810303 889.322205,305.705902 888.842834,323.205627 
	C888.738953,326.997559 887.756165,328.951508 884.072205,329.850494 
	C881.397766,330.503113 878.868713,331.751404 875.631409,332.977844 
	C873.677795,315.280548 878.564148,300.319916 890.433167,287.963715 
	C905.917236,271.844116 924.221741,268.425537 951.065613,275.999207 
	C953.635315,270.410828 956.238586,264.749451 959.298767,258.094421 
	C964.061340,270.454590 968.464539,281.882080 972.958496,293.545227 
	C961.411011,297.917969 950.028503,302.228241 937.367920,307.022461 
	C940.294434,300.347107 942.705750,294.846924 945.286682,288.959839 
	C937.082581,285.019409 928.738892,284.364258 919.706909,286.349792 
z"/>
<path fill="#060606" opacity="1.000000" stroke="none" 
	d="
M886.354919,357.005890 
	C897.607971,352.712860 908.531311,348.563293 920.601562,343.978088 
	C917.667297,350.768890 915.225281,356.420532 912.790771,362.054871 
	C938.678345,373.496338 967.133667,356.316315 969.175232,328.151886 
	C969.476685,323.993011 970.471924,321.842773 974.445740,320.886078 
	C976.975098,320.277100 979.390503,319.194733 982.492554,318.100464 
	C984.357788,337.001190 978.867737,352.782623 965.234680,365.400879 
	C951.251892,378.342743 929.920776,383.896149 907.121765,374.771301 
	C904.454834,380.491730 901.769165,386.252411 898.736816,392.756592 
	C894.258606,381.201538 890.123352,370.593323 886.070923,359.953613 
	C885.758057,359.132233 886.026794,358.089325 886.354919,357.005890 
z"/>
<path fill="#080A08" opacity="1.000000" stroke="none" 
	d="
M203.176422,335.107483 
	C195.907181,332.023102 189.099777,329.024902 182.333984,325.935547 
	C180.381638,325.044067 178.561066,323.867554 176.659164,322.861267 
	C170.679489,319.697327 164.570389,316.755920 158.740417,313.337769 
	C153.744385,310.408539 152.283157,305.588715 154.226273,300.581085 
	C156.112701,295.719543 161.317810,292.476044 166.033234,293.223785 
	C171.047562,294.018860 174.336014,298.226105 175.236679,303.601685 
	C175.650467,306.071381 177.074219,309.041626 179.010452,310.461578 
	C184.959198,314.824036 188.740921,321.994171 196.841034,324.052795 
	C207.502243,328.628510 217.515945,333.977448 228.134491,337.506195 
	C239.084274,341.144989 250.555038,343.380951 261.937103,345.473083 
	C266.512146,346.313995 271.460297,344.900238 276.234344,344.947540 
	C280.823181,344.992950 285.494965,345.166687 289.968170,346.079010 
	C294.759613,347.056244 296.158386,350.564636 295.567413,356.141754 
	C295.016174,361.344147 291.222504,361.452026 287.904572,360.785187 
	C279.867126,359.169678 271.960571,356.901062 264.005249,354.879944 
	C260.483215,353.985107 256.902435,353.255890 253.465744,352.101868 
	C236.839981,346.519379 220.254105,340.818115 203.176422,335.107483 
z"/>
</svg>