<svg id="visual" viewBox="0 0 960 540" width="960" height="540" xmlns="http://www.w3.org/2000/svg" xmlns:xlink="http://www.w3.org/1999/xlink" version="1.1"><rect x="0" y="0" width="960" height="540" fill="#6ce861"></rect><path d="M0 275L32 272.8C64 270.7 128 266.3 192 264.5C256 262.7 320 263.3 384 266.7C448 270 512 276 576 275.3C640 274.7 704 267.3 768 264.3C832 261.3 896 262.7 928 263.3L960 264L960 0L928 0C896 0 832 0 768 0C704 0 640 0 576 0C512 0 448 0 384 0C320 0 256 0 192 0C128 0 64 0 32 0L0 0Z" fill="#58dd4b"></path><path d="M0 197L32 198.7C64 200.3 128 203.7 192 205.7C256 207.7 320 208.3 384 209.7C448 211 512 213 576 213.7C640 214.3 704 213.7 768 211.7C832 209.7 896 206.3 928 204.7L960 203L960 0L928 0C896 0 832 0 768 0C704 0 640 0 576 0C512 0 448 0 384 0C320 0 256 0 192 0C128 0 64 0 32 0L0 0Z" fill="#43cc3b"></path><path d="M0 151L32 152.2C64 153.3 128 155.7 192 151.8C256 148 320 138 384 133.7C448 129.3 512 130.7 576 130.5C640 130.3 704 128.7 768 128.7C832 128.7 896 130.3 928 131.2L960 132L960 0L928 0C896 0 832 0 768 0C704 0 640 0 576 0C512 0 448 0 384 0C320 0 256 0 192 0C128 0 64 0 32 0L0 0Z" fill="#2bbb29"></path><path d="M0 87L32 83.5C64 80 128 73 192 72.3C256 71.7 320 77.3 384 76.7C448 76 512 69 576 69.8C640 70.7 704 79.3 768 82C832 84.7 896 81.3 928 79.7L960 78L960 0L928 0C896 0 832 0 768 0C704 0 640 0 576 0C512 0 448 0 384 0C320 0 256 0 192 0C128 0 64 0 32 0L0 0Z" fill="#00aa13"></path></svg>